<svg width="101" height="108" viewBox="0 0 101 108" fill="none" xmlns="http://www.w3.org/2000/svg">
<path d="M85.4589 72.3888C90.5859 79.3142 77.4479 98.1578 55.1772 80.7638C30.9519 68.7896 40.622 112.723 27.2989 106.368C14.2988 100.167 -24.7439 34.3796 27.2989 69.3287" stroke="#D6DCE8" stroke-width="1.70074" stroke-miterlimit="10" stroke-dasharray="3.4 3.4"/>
<g filter="url(#filter0_d_979_978)">
<path d="M80.9361 63.908C82.7449 49.8003 80.4396 45.5376 78.0837 42.2418C76.7796 43.7451 75.8531 45.0063 75.8531 45.0063C76.0762 44.7298 74.7861 42.4863 74.6657 42.2965C73.4098 39.8976 72.2743 37.6886 70.8295 35.4107C63.2624 24.1081 50.6487 16.5737 37.7801 12.4063C35.3405 11.7005 32.9009 10.9947 30.5474 10.6341C29.3105 10.3589 28.0393 10.2392 26.8024 9.96397C26.4932 9.89517 23.2982 9.67345 23.3667 9.36261C27.6019 21.0652 29.8919 27.607 28.2658 34.2558C31.993 34.2699 33.7965 34.182 37.7455 32.452C33.4745 39.3275 31.2414 39.1567 31.2414 39.1567C31.2414 39.1567 35.9735 49.3396 57.9149 57.971C55.9251 61.1151 55.0494 61.4093 55.0494 61.4093C55.0494 61.4093 69.2435 69.1323 78.807 64.7386C80.9361 63.908 80.9361 63.908 80.9361 63.908Z" fill="url(#paint0_linear_979_978)"/>
</g>
<path d="M89.228 79.2849C81.3656 64.1667 71.7976 42.7998 52.8054 28.14C33.6928 13.2905 20.7546 7.96637 20.7546 7.96637L22.4566 9.81236C22.4566 9.81236 41.3919 18.101 57.7416 35.9227C73.9709 53.5545 80.3732 68.6739 84.8468 77.821C89.228 79.2849 89.228 79.2849 89.228 79.2849Z" fill="url(#paint1_linear_979_978)"/>
<path d="M91.5672 31.5306L89.8114 30.9986C89.6842 30.9615 89.6842 30.7759 89.8114 30.7388L91.5672 30.2068C91.6123 30.1945 91.6451 30.1615 91.6574 30.1161L92.1866 28.3553C92.2235 28.2274 92.4082 28.2274 92.4451 28.3553L92.9743 30.1161C92.9866 30.1615 93.0194 30.1945 93.0645 30.2068L94.8162 30.7388C94.9434 30.7759 94.9434 30.9615 94.8162 30.9986L93.0604 31.5306C93.0153 31.543 92.9825 31.5759 92.9702 31.6213L92.441 33.3863C92.404 33.5141 92.2194 33.5141 92.1825 33.3863L91.6533 31.6213C91.6451 31.5759 91.6123 31.543 91.5672 31.5306Z" fill="#EAEEF9"/>
<path d="M59.0021 11.4787L57.2065 11.853C57.0771 11.8813 56.9891 11.7182 57.0832 11.6246L58.374 10.3152C58.4078 10.2827 58.421 10.238 58.4103 10.1922L58.0399 8.39084C58.0117 8.26078 58.1739 8.17227 58.267 8.26692L59.5677 9.56081C59.6 9.59477 59.6445 9.60803 59.6901 9.59727L61.4821 9.22491C61.6115 9.19656 61.6995 9.35966 61.6054 9.45325L60.3146 10.7627C60.2808 10.7952 60.2676 10.8399 60.2783 10.8857L60.6507 12.6907C60.6789 12.8207 60.5167 12.9093 60.4235 12.8146L59.1209 11.5171C59.0922 11.4812 59.0477 11.4679 59.0021 11.4787Z" fill="#EAEEF9"/>
<path d="M22.8976 67.4417L21.5257 66.2184C21.4258 66.1311 21.5032 65.9626 21.6341 65.9826L23.45 66.2401C23.4961 66.2479 23.5397 66.2318 23.5698 66.1958L24.7849 64.8206C24.8718 64.7201 25.0394 64.7979 25.0195 64.9296L24.7652 66.7511C24.7574 66.7974 24.7734 66.8412 24.8092 66.8715L26.1774 68.093C26.2773 68.1803 26.1999 68.3488 26.069 68.3288L24.2531 68.0713C24.207 68.0635 24.1634 68.0796 24.1333 68.1156L22.9165 69.4946C22.8296 69.595 22.662 69.5172 22.6818 69.3856L22.9379 67.5603C22.9494 67.5157 22.9334 67.4719 22.8976 67.4417Z" fill="#EAEEF9"/>
<path d="M35.2672 58.8232L33.7309 58.3577C33.6196 58.3252 33.6196 58.1629 33.7309 58.1304L35.2672 57.665C35.3067 57.6541 35.3354 57.6253 35.3462 57.5856L35.8092 56.0449C35.8415 55.9331 36.0031 55.9331 36.0354 56.0449L36.4984 57.5856C36.5092 57.6253 36.5379 57.6541 36.5774 57.665L38.1101 58.1304C38.2214 58.1629 38.2214 58.3252 38.1101 58.3577L36.5738 58.8232C36.5343 58.834 36.5056 58.8629 36.4948 58.9025L36.0318 60.4468C35.9995 60.5587 35.8379 60.5587 35.8056 60.4468L35.3426 58.9025C35.3354 58.8629 35.3067 58.834 35.2672 58.8232Z" fill="#AAB2C5"/>
<path d="M60.9025 75.3378L59.3661 74.8059C59.2548 74.7687 59.2548 74.5832 59.3661 74.5461L60.9025 74.0141C60.9419 74.0017 60.9707 73.9687 60.9814 73.9234L61.4445 72.1625C61.4768 72.0347 61.6383 72.0347 61.6706 72.1625L62.1337 73.9234C62.1445 73.9687 62.1732 74.0017 62.2127 74.0141L63.7454 74.5461C63.8567 74.5832 63.8567 74.7687 63.7454 74.8059L62.2091 75.3378C62.1696 75.3502 62.1409 75.3832 62.1301 75.4286L61.667 77.1935C61.6347 77.3214 61.4732 77.3214 61.4409 77.1935L60.9778 75.4286C60.9707 75.3832 60.9419 75.3502 60.9025 75.3378Z" fill="#AAB2C5"/>
<path d="M82.6673 38.5943L81.5699 38.2618C81.4904 38.2387 81.4904 38.1227 81.5699 38.0995L82.6673 37.767C82.6955 37.7593 82.716 37.7387 82.7237 37.7103L83.0544 36.6099C83.0775 36.53 83.1929 36.53 83.216 36.6099L83.5467 37.7103C83.5544 37.7387 83.5749 37.7593 83.6031 37.767L84.698 38.0995C84.7774 38.1227 84.7774 38.2387 84.698 38.2618L83.6006 38.5943C83.5724 38.602 83.5519 38.6226 83.5442 38.651L83.2134 39.754C83.1903 39.8339 83.075 39.8339 83.0519 39.754L82.7211 38.651C82.716 38.6226 82.6955 38.602 82.6673 38.5943Z" fill="#AAB2C5"/>
<path d="M21.3631 41.8998L20.2657 41.5673C20.1862 41.5441 20.1862 41.4282 20.2657 41.405L21.3631 41.0725C21.3913 41.0648 21.4118 41.0442 21.4195 41.0158L21.7502 39.9154C21.7733 39.8355 21.8887 39.8355 21.9118 39.9154L22.2425 41.0158C22.2502 41.0442 22.2707 41.0648 22.2989 41.0725L23.3938 41.405C23.4732 41.4282 23.4732 41.5441 23.3938 41.5673L22.2964 41.8998C22.2682 41.9075 22.2477 41.9281 22.24 41.9565L21.9092 43.0595C21.8861 43.1394 21.7708 43.1394 21.7477 43.0595L21.4169 41.9565C21.4118 41.9281 21.3913 41.9075 21.3631 41.8998Z" fill="#EAEEF9"/>
<path d="M74.5564 23.2173L73.4591 22.8848C73.3796 22.8616 73.3796 22.7456 73.4591 22.7225L74.5564 22.39C74.5846 22.3823 74.6052 22.3617 74.6129 22.3333L74.9436 21.2329C74.9667 21.153 75.0821 21.153 75.1051 21.2329L75.4359 22.3333C75.4436 22.3617 75.4641 22.3823 75.4923 22.39L76.5871 22.7225C76.6666 22.7456 76.6666 22.8616 76.5871 22.8848L75.4897 23.2173C75.4615 23.225 75.441 23.2456 75.4333 23.274L75.1026 24.377C75.0795 24.4569 74.9641 24.4569 74.941 24.377L74.6103 23.274C74.6052 23.2456 74.5846 23.225 74.5564 23.2173Z" fill="#AAB2C5"/>
<path d="M90.8987 60.2602L89.8013 59.9277C89.7219 59.9045 89.7219 59.7885 89.8013 59.7653L90.8987 59.4329C90.9269 59.4252 90.9474 59.4045 90.9551 59.3762L91.2859 58.2758C91.309 58.1959 91.4243 58.1959 91.4474 58.2758L91.7782 59.3762C91.7859 59.4045 91.8064 59.4252 91.8346 59.4329L92.9294 59.7653C93.0089 59.7885 93.0089 59.9045 92.9294 59.9277L91.832 60.2602C91.8038 60.2679 91.7833 60.2885 91.7756 60.3169L91.4449 61.4199C91.4218 61.4998 91.3064 61.4998 91.2833 61.4199L90.9526 60.3169C90.9474 60.2885 90.9269 60.2679 90.8987 60.2602Z" fill="#EAEEF9"/>
<defs>
<filter id="filter0_d_979_978" x="4.65739" y="0.0085659" width="95.6354" height="94.144" filterUnits="userSpaceOnUse" color-interpolation-filters="sRGB">
<feFlood flood-opacity="0" result="BackgroundImageFix"/>
<feColorMatrix in="SourceAlpha" type="matrix" values="0 0 0 0 0 0 0 0 0 0 0 0 0 0 0 0 0 0 127 0" result="hardAlpha"/>
<feOffset dy="9.35404"/>
<feGaussianBlur stdDeviation="9.35404"/>
<feColorMatrix type="matrix" values="0 0 0 0 0.397708 0 0 0 0 0.47749 0 0 0 0 0.575 0 0 0 0.27 0"/>
<feBlend mode="normal" in2="BackgroundImageFix" result="effect1_dropShadow_979_978"/>
<feBlend mode="normal" in="SourceGraphic" in2="effect1_dropShadow_979_978" result="shape"/>
</filter>
<linearGradient id="paint0_linear_979_978" x1="56.8638" y1="15.3357" x2="46.5745" y2="61.5833" gradientUnits="userSpaceOnUse">
<stop stop-color="#FDFEFF"/>
<stop offset="0.9964" stop-color="#ECF0F5"/>
</linearGradient>
<linearGradient id="paint1_linear_979_978" x1="95.1495" y1="52.5663" x2="14.8138" y2="34.8779" gradientUnits="userSpaceOnUse">
<stop stop-color="#8594B3"/>
<stop offset="1" stop-color="#99EAC2"/>
</linearGradient>
</defs>
</svg>
